<svg version="1.1" viewBox="0.0 0.0 512.0 512.0" fill="none" stroke="none" stroke-linecap="square" stroke-miterlimit="10" xmlns:xlink="http://www.w3.org/1999/xlink" xmlns="http://www.w3.org/2000/svg"><clipPath id="p.0"><path d="m0 0l512.0 0l0 512.0l-512.0 0l0 -512.0z" clip-rule="nonzero"/></clipPath><g clip-path="url(#p.0)"><defs><radialGradient id="p.1" gradientUnits="userSpaceOnUse" gradientTransform="matrix(19.02731386455436 0.0 0.0 19.02731386455436 0.0 0.0)" spreadMethod="pad" cx="13.454342626727664" cy="13.454342626727664" fx="13.454342626727664" fy="13.454342626727664" r="19.027313232421875"><stop offset="0.0" stop-color="#ffffff"/><stop offset="1.0" stop-color="#c9daf8"/></radialGradient></defs><path fill="url(#p.1)" d="m0 0l512.0 0l0 512.0l-512.0 0z" fill-rule="evenodd"/><g filter="url(#shadowFilter-p.2)"><use xlink:href="#p.2" transform=""/></g><defs><filter id="shadowFilter-p.2" filterUnits="userSpaceOnUse"><feGaussianBlur in="SourceAlpha" stdDeviation="17.0" result="blur"/><feComponentTransfer in="blur" color-interpolation-filters="sRGB"><feFuncR type="linear" slope="0" intercept="1.0"/><feFuncG type="linear" slope="0" intercept="0.8980392"/><feFuncB type="linear" slope="0" intercept="0.6"/><feFuncA type="linear" slope="0.8" intercept="0"/></feComponentTransfer></filter></defs><g id="p.2"><path fill="#e69138" d="m61.674362 40.000465c-7.7408257 0 -13.288418 1.9946785 -16.642776 5.984043c-3.3543587 3.9893608 -5.031536 8.976063 -5.031536 14.960106c0 6.3164864 1.6771774 11.469418 5.031536 15.458775c3.3543587 3.9893646 8.901951 5.984047 16.642776 5.984047l15.868698 0l67.345184 389.4615l40.252304 0.49865723l71.21559 -269.28192l71.60266 269.28192l40.25229 -0.49865723l66.18408 -389.4615l15.481659 0c7.9988403 0 13.675446 -1.9946823 17.029816 -5.984047c3.3543396 -3.989357 5.0315247 -8.976059 5.0315247 -14.960106c0 -6.3164864 -1.677185 -11.469414 -5.0315247 -15.458775c-3.35437 -3.9893646 -9.030975 -5.984043 -17.029816 -5.984043l-89.01953 0c-7.9988403 0 -13.675446 1.9946785 -17.029816 5.984043c-3.3543396 3.9893608 -5.0315247 8.976063 -5.0315247 14.960106c0 6.3164864 1.7201843 11.469418 5.160553 15.458775c3.5263672 3.9893646 9.159973 5.984047 16.900787 5.984047l41.026398 0l-55.346924 332.11438l-71.21561 -265.2926l-38.704117 0l-69.28041 265.2926l-57.66915 -332.11438l41.41343 0c7.740814 0 13.288406 -1.9946823 16.642776 -5.984047c3.3543549 -3.989357 5.0315247 -8.976059 5.0315247 -14.960106c0 -6.3164864 -1.6771698 -11.469414 -5.0315247 -15.458775c-3.35437 -3.9893646 -8.901962 -5.984043 -16.642776 -5.984043z" fill-rule="evenodd"/><path stroke="#85200c" stroke-width="8.0" stroke-linejoin="round" stroke-linecap="butt" d="m61.674362 40.000465c-7.7408257 0 -13.288418 1.9946785 -16.642776 5.984043c-3.3543587 3.9893608 -5.031536 8.976063 -5.031536 14.960106c0 6.3164864 1.6771774 11.469418 5.031536 15.458775c3.3543587 3.9893646 8.901951 5.984047 16.642776 5.984047l15.868698 0l67.345184 389.4615l40.252304 0.49865723l71.21559 -269.28192l71.60266 269.28192l40.25229 -0.49865723l66.18408 -389.4615l15.481659 0c7.9988403 0 13.675446 -1.9946823 17.029816 -5.984047c3.3543396 -3.989357 5.0315247 -8.976059 5.0315247 -14.960106c0 -6.3164864 -1.677185 -11.469414 -5.0315247 -15.458775c-3.35437 -3.9893646 -9.030975 -5.984043 -17.029816 -5.984043l-89.01953 0c-7.9988403 0 -13.675446 1.9946785 -17.029816 5.984043c-3.3543396 3.9893608 -5.0315247 8.976063 -5.0315247 14.960106c0 6.3164864 1.7201843 11.469418 5.160553 15.458775c3.5263672 3.9893646 9.159973 5.984047 16.900787 5.984047l41.026398 0l-55.346924 332.11438l-71.21561 -265.2926l-38.704117 0l-69.28041 265.2926l-57.66915 -332.11438l41.41343 0c7.740814 0 13.288406 -1.9946823 16.642776 -5.984047c3.3543549 -3.989357 5.0315247 -8.976059 5.0315247 -14.960106c0 -6.3164864 -1.6771698 -11.469414 -5.0315247 -15.458775c-3.35437 -3.9893646 -8.901962 -5.984043 -16.642776 -5.984043z" fill-rule="evenodd"/></g></g></svg>